<svg width="296" height="80" xmlns="http://www.w3.org/2000/svg"><path d="M11.217 12.248C-5.936 31.305-3.61 63.38 19.533 75.595 11.575 68.835 4.52 59.556 4.623 48.58c.284-10.65 5.564-21.402 14.181-27.75 12.115-8.435 30.576-7.229 40.131 4.526l14.988-9.843C59.367-3.375 26.89-5.67 11.217 12.248Z" fill="#E5E7EB"/><path d="M58.688 53.089v23.454c4.93-1.713 10.804-4.998 15.518-10.433V36.502h-.036v-.037H41.434v15.52h17.254v1.104Z" fill="#314FEB"/><path d="M53.84 78.486V62.989C29.968 75.598 7.189 44.464 22.848 24.91-9.775 53.171 26.392 87.68 53.84 78.486Z" fill="#314FEB"/><path d="M97.918 41.785h4.26v.285c-.034 2.5-1.885 4.213-4.555 4.213-3.142 0-5.093-2.431-5.093-6.372 0-3.87 1.895-6.176 5.047-6.176 2.146 0 3.757 1.175 4.372 3.219h2.624c-.569-3.288-3.35-5.458-7.01-5.458-4.692-.01-7.649 3.232-7.649 8.427 0 5.288 2.97 8.586 7.686 8.586 4.465 0 7.101-2.661 7.101-7.12v-1.675h-6.783v2.07Zm9.285 6.452h10.461V46.02h-7.904v-5.116h7.481v-2.123h-7.481v-4.82h7.904V31.76h-10.461v16.477Zm20.209-9.306-1.816-.446c-2.123-.523-2.992-1.21-2.992-2.375 0-1.466 1.359-2.467 3.351-2.467 1.991 0 3.35.995 3.493 2.639h2.49c-.08-2.844-2.467-4.796-5.95-4.796-3.516 0-5.994 1.952-5.994 4.796 0 2.304 1.404 3.71 4.43 4.442l2.136.513c2.136.526 3.036 1.292 3.036 2.57 0 1.465-1.495 2.546-3.572 2.546-2.17 0-3.757-1.072-3.942-2.706h-2.527c.161 2.98 2.628 4.865 6.282 4.865 3.906 0 6.362-1.93 6.362-5.013-.002-2.409-1.407-3.768-4.787-4.568Zm6.119-4.966h5.047v14.274h2.559V33.965h5.035v-2.203h-12.641v2.203Zm17.276-2.205h-2.557v16.477h2.557V31.76Zm10.164-.274c-4.751 0-7.721 3.278-7.721 8.52 0 5.241 2.97 8.506 7.721 8.506 4.752 0 7.719-3.267 7.719-8.507s-2.982-8.519-7.719-8.519Zm0 14.777c-3.131 0-5.105-2.42-5.105-6.258 0-3.836 1.974-6.27 5.105-6.27 3.131 0 5.093 2.421 5.093 6.27 0 3.85-1.964 6.258-5.093 6.258Zm21.101-2.353h-.09l-8.543-12.15h-2.318v16.477h2.49V36.099h.103l8.542 12.138h2.306V31.76h-2.49v12.15Zm5.526 4.327h10.46V46.02h-7.901v-5.116h7.478v-2.123h-7.478v-4.82h7.901V31.76h-10.46v16.477Zm20.217-9.306-1.816-.446c-2.123-.523-2.99-1.21-2.99-2.375 0-1.466 1.357-2.467 3.351-2.467 1.993 0 3.35.995 3.495 2.639h2.488c-.08-2.844-2.465-4.796-5.948-4.796-3.518 0-5.995 1.952-5.995 4.796 0 2.304 1.403 3.71 4.429 4.442l2.136.513c2.136.526 3.039 1.292 3.039 2.57 0 1.465-1.498 2.546-3.575 2.546-2.17 0-3.757-1.072-3.939-2.706h-2.513c.159 2.98 2.626 4.865 6.282 4.865 3.904 0 6.36-1.93 6.36-5.013-.027-2.409-1.432-3.768-4.804-4.568Z" fill="#E5E7EB"/><path d="M223.807 31.76h-4.842v16.477h11.304v-3.85h-6.462V31.76Zm12.87 0-5.38 16.477h4.934l.856-3.278h5.026l.857 3.278h5.162l-5.378-16.477h-6.077Zm1.298 9.786 1.588-5.985h.088l1.587 5.985h-3.263Zm22.362-9.784h-13.521v3.847h4.34v12.63h4.841v-12.63h4.34v-3.847Zm4.064 0-5.378 16.477h4.932l.857-3.278h5.026l.856 3.278h5.16l-5.377-16.477h-6.076Zm1.29 9.786 1.588-5.985h.092l1.587 5.985h-3.267Zm24.696-9.788-3.677 9.614h-.091l-3.689-9.614h-5.594v16.477h4.224V38.69h.092l3.711 9.352h2.593l3.71-9.352h.091v9.547h4.226V31.76h-5.596Z" fill="#314FEB"/></svg>